<svg id="Layer_1" data-name="Layer 1" xmlns="http://www.w3.org/2000/svg" viewBox="0 0 323.52 122.88"><defs><style>.cls-1{fill:#fdfdfe;}.cls-2{fill:#02519e;}.cls-3{fill:#01519d;}.cls-4{fill:#93c027;}.cls-5{fill:#90bf23;}.cls-6{fill:#749a1a;}.cls-7{fill:#86b21d;}.cls-8{fill:#7da51a;}.cls-9{fill:#739819;}.cls-10{fill:#7aa11b;}.cls-11{fill:#3778b9;}.cls-12{fill:#6b99c5;}.cls-13{fill:#014c8c;}.cls-14{fill:#024887;}.cls-15{fill:#004786;}.cls-16{fill:#8ab425;}.cls-17{fill:#84c613;}.cls-18{fill:#fcfdfd;}.cls-19{fill:#3779b9;}.cls-20{fill:#004981;}.cls-21{fill:#f8fafb;}.cls-22{fill:#004a88;}.cls-23{fill:#81aa1e;}.cls-24{fill:#94c02a;}.cls-25{fill:#769b1a;}.cls-26{fill:#86a630;}.cls-27{fill:#80a81e;}.cls-28{fill:#89b421;}</style></defs><title>logo</title><path class="cls-1" d="M136,482.77V359.89H459.52V482.77Zm43.92-101.45a7.77,7.77,0,0,0,.83.08l14.68-.09,1,0,3.61,0h6.48l6.23,0c2.35,0,4.7,0,7,.11.63,0,.85-.23.85-.84q0-5.49,0-11c0-.62-.25-.84-.85-.83-2.19,0-4.38.06-6.57.09h-10.8a5.9,5.9,0,0,0-.59-.06H175.49c-.27,0-.53.05-.86.08,0,4,0,7.88,0,11.78,0,.26.48.71.76.73,1.06.08,2.14,0,3.21,0Zm64.7,84.19a4.09,4.09,0,0,0,.44-1.27q0-10.47,0-20.93,0-22.9,0-45.81a6.87,6.87,0,0,0-.35-1.51l0-.37,0-.54a26.36,26.36,0,0,0-2.2-4.34c-1.9-2.53-4.36-4.44-7.66-4.77a55.26,55.26,0,0,0-5.61-.22q-32.56,0-65.11,0a12.48,12.48,0,0,0-6.11,1.08,14.77,14.77,0,0,0-6.24,6,9.26,9.26,0,0,0-1.15,4.87c.1,5.23,0,10.46,0,15.69v1.26h18.88a2.24,2.24,0,0,0,.1-.43c0-4.83,0-9.66,0-14.49,0-2.44,0-2.46,2.48-2.46l53.24,0c.77,0,1.09.22,1.09,1,0,7,0,14,0,21,0,.07-.06.14-.14.33H162.41a3.68,3.68,0,0,0-1.2,0c-2.88,1.06-5.76,2.16-7.67,4.74-1.71,2.3-3,4.73-2.95,7.8.12,6.42.1,12.85,0,19.28a14.21,14.21,0,0,0,4.21,10.78c1.8,1.76,3.89,3.23,6.61,3.32.44,0,.87.08,1.31.08h78.17C242.15,465.57,243.39,465.53,244.62,465.51ZM217.3,401.57l-5.52,0-13.65-.07c-7.43-.05-14.86-.08-22.29-.14-.86,0-1.23.3-1.23,1.18,0,3,0,6,0,9v2.89c.52,0,.87.06,1.23.06H202c3,0,5.91,0,8.86-.07s6.11.08,9.16.07c.19,0,.38-.48.57-.74V401.63h-1.09l-1.44,0Zm231,55.32a5.21,5.21,0,0,0,.68-1.66c.05-5.91,0-11.82,0-17.73.15-1-.58-.76-1.09-.77h-16.3c-.31,0-.61.05-.95.08,0,.27-.09.46-.1.65,0,5-.1,10-.12,14.95,0,1.48,0,1.52-1.5,1.55H375.78c-2.34,0-2.34,0-2.34-2.39q0-21.68,0-43.35c0-3.15,0-6.31,0-9.46a5.21,5.21,0,0,1,.64-1.62c.48,0,.95.1,1.43.1h53.18c.36,0,.71,0,1.07-.08.2.37.57.73.58,1.1.06,4.74.08,9.48.09,14.23,0,1,.3,1.32,1.32,1.31,5.39,0,10.78,0,16.17,0a5.55,5.55,0,0,0,.8-.13,17.79,17.79,0,0,0,.24-2.29c0-5.28-.05-10.56-.08-15.84a7.34,7.34,0,0,0-2-4.58,12.33,12.33,0,0,0-10.09-5.27q-34.69,0-69.38,0a11.54,11.54,0,0,0-7.91,2.79c-2.83,2.49-4.72,5.37-4.7,9.44.09,22,.05,44.05.05,66.07v1.53h1.24c.36,0,.72.05,1.07.05H435.3c.4,0,.79,0,1.19-.05C441.59,465.88,447.13,461.82,448.25,456.89Zm-113.44,8.63c2.95.38,5.34-.91,7.48-2.69a14,14,0,0,0,5-11.36c0-4.51,0-9,0-13.53a15.77,15.77,0,0,0-.71-4.42,10.23,10.23,0,0,0-8.31-7.33,3.59,3.59,0,0,1-.76-.34,7.82,7.82,0,0,1,.72-.49c.67-.35,1.35-.69,2-1a12.14,12.14,0,0,0,7-10.76c.35-5.37.06-10.77.1-16.16a9,9,0,0,0-.72-3.57c-1.71-4.25-6.54-8.51-12.4-8.22-1.4.07-2.8,0-4.2,0q-32.18,0-64.36.08a10.85,10.85,0,0,0-6.14,1.38c-4,2.58-6.59,5.92-6.59,10.92q0,31.37,0,62.73c0,1.19,0,2.39.12,3.58a2.94,2.94,0,0,0,.48,1,13.65,13.65,0,0,0,1.89.27h78.33C334.09,465.57,334.45,465.54,334.81,465.52Z" transform="translate(-136 -359.89)"/><path class="cls-2" d="M253.51,465.29a2.94,2.94,0,0,1-.48-1c-.09-1.19-.12-2.39-.12-3.58q0-31.36,0-62.73c0-5,2.59-8.34,6.59-10.92a10.85,10.85,0,0,1,6.14-1.38q32.19-.06,64.36-.08c1.4,0,2.8.05,4.2,0,5.86-.29,10.69,4,12.4,8.22a9,9,0,0,1,.72,3.57c0,5.39.25,10.79-.1,16.16a12.14,12.14,0,0,1-7,10.76c-.68.33-1.36.67-2,1a7.82,7.82,0,0,0-.72.49,3.59,3.59,0,0,0,.76.34,10.23,10.23,0,0,1,8.31,7.33,15.77,15.77,0,0,1,.71,4.42c.09,4.51,0,9,0,13.53a14,14,0,0,1-5,11.36c-2.14,1.78-4.53,3.07-7.48,2.69a6.86,6.86,0,0,0-1.25-.23Q293.54,465.28,253.51,465.29Zm74.88-53.17c.14-.24.41-.47.42-.72.09-4.15.17-8.3.18-12.45,0-.48-.45-1-.69-1.44l-.22-.22c-.42-.94-1.28-.74-2-.74q-24.53,0-49,0c-1.39,0-2.79.13-4.18.23-.22,0-.43.25-.64.38l-.71,1.05a1.43,1.43,0,0,0-.22.53c-.09,6.64-.18,13.29-.22,19.94,0,.27.36.54.55.81h.08l.06.06.23,0,1.32,0h36.63c3.43,0,6.86-.08,10.29-.06s7.07-3.13,8-6.4l.14-.53ZM271.5,432.47a2.76,2.76,0,0,0-.23.76q0,9.93,0,19.86c0,.14.17.28.27.42a4.56,4.56,0,0,0,1.36.46q27.08,0,54.16,0c1.11,0,1.33-.39,1.32-1.39,0-4.11-.08-8.22,0-12.32a8.47,8.47,0,0,0-7.68-8.85,41.86,41.86,0,0,0-5.26-.12q-21.21,0-42.41,0C272.12,431.31,271.6,431.53,271.5,432.47Z" transform="translate(-136 -359.89)"/><path class="cls-3" d="M244.71,395.62l0,.37-.13.33a11,11,0,0,0-.19,1.37q0,33.68,0,67.35a13.11,13.11,0,0,1-1.75.23q-39.87,0-79.72,0a11,11,0,0,0-1.5.2c-2.72-.09-4.81-1.56-6.61-3.32a14.21,14.21,0,0,1-4.21-10.78c.08-6.43.1-12.86,0-19.28-.06-3.07,1.24-5.5,2.95-7.8,1.91-2.58,4.79-3.68,7.67-4.74a3.68,3.68,0,0,1,1.2,0h63.82c.08-.19.14-.26.14-.33,0-7,0-14,0-21,0-.79-.32-1-1.09-1l-53.24,0c-2.47,0-2.48,0-2.48,2.46,0,4.83,0,9.66,0,14.49a2.24,2.24,0,0,1-.1.43H150.63v-1.26c0-5.23.06-10.46,0-15.69a9.26,9.26,0,0,1,1.15-4.87,14.77,14.77,0,0,1,6.24-6,12.48,12.48,0,0,1,6.11-1.08q32.55-.06,65.11,0a55.26,55.26,0,0,1,5.61.22c3.3.33,5.76,2.24,7.66,4.77a26.36,26.36,0,0,1,2.2,4.34Zm-18.49,58.25c.08-.18.14-.25.14-.32q0-10.53,0-21.07c0-.93-.47-1.18-1.36-1.18q-27.07,0-54.16,0c-1.09,0-1.34.39-1.33,1.41q.06,10,0,20c0,1,.31,1.3,1.3,1.3l53.92,0C225.26,454,225.77,453.9,226.22,453.87Z" transform="translate(-136 -359.89)"/><path class="cls-3" d="M448.76,413.71a5.55,5.55,0,0,1-.8.13c-5.39,0-10.78,0-16.17,0-1,0-1.32-.36-1.32-1.31,0-4.75,0-9.49-.09-14.23,0-.37-.38-.73-.58-1.1-.17-.14-.32-.38-.5-.4-1.11-.11-2.22-.23-3.33-.24-5.9,0-11.81,0-17.71,0-10.14,0-20.27,0-30.41,0a24.29,24.29,0,0,0-3.73.59,5.21,5.21,0,0,0-.64,1.62c-.06,3.15,0,6.31,0,9.46q0,21.67,0,43.35c0,2.39,0,2.39,2.34,2.39H428.9c1.52,0,1.5-.07,1.5-1.55,0-5,.08-10,.12-14.95,0-.19.06-.38.1-.65.34,0,.64-.08.95-.08h16.3c.51,0,1.24-.21,1.09.77a25.59,25.59,0,0,0-.45,3.23c-.06,3.3,0,6.59,0,9.88,0,1.89-.3,3.77-.43,5.65a2,2,0,0,0,.21.63c-1.12,4.93-6.66,9-11.76,8.63a6.75,6.75,0,0,0-1.24-.23q-38.92,0-77.84,0a6.86,6.86,0,0,0-1.25.23h-1.24V464c0-22,0-44-.05-66.07,0-4.07,1.87-6.95,4.7-9.44a11.54,11.54,0,0,1,7.91-2.79q34.68,0,69.38,0A12.33,12.33,0,0,1,447,391a7.34,7.34,0,0,1,2,4.58c-.14.32-.42.65-.41,1C448.57,402.27,448.67,408,448.76,413.71Z" transform="translate(-136 -359.89)"/><path class="cls-4" d="M210.82,414.45c-2.95,0-5.9.06-8.86.07H175.84c-.36,0-.71,0-1.23-.06v-2.89c0-3,0-6,0-9,0-.88.37-1.19,1.23-1.18,7.43.06,14.86.09,22.29.14l13.65.07v.44H208.2c-1.59.08-3.18.09-4.75.25-1.94.2-3.19,1.14-3.31,2.78-.18,2.34-.1,4.69-.07,7a1,1,0,0,0,.51.71,7.92,7.92,0,0,0,2.39.9c1.89.19,3.8.19,5.71.26h2.14Z" transform="translate(-136 -359.89)"/><path class="cls-5" d="M200,381.25l-3.61,0a4.61,4.61,0,0,0-1.17-.31c-4.35,0-8.7,0-13.05,0-1.16,0-2.31,0-3.47,0,0,0-.06.21-.09.32-1.07,0-2.15.08-3.21,0-.28,0-.76-.47-.76-.73,0-3.9,0-7.8,0-11.78.33,0,.59-.08.86-.08h26.35a5.9,5.9,0,0,1,.59.06c-.24,1.5-.45,3-.73,4.5-.37,2-.8,4-1.21,6C200.35,379.91,200.18,380.58,200,381.25Z" transform="translate(-136 -359.89)"/><path class="cls-6" d="M213.23,368.77c2.19,0,4.38,0,6.57-.09.6,0,.86.21.85.83q0,5.5,0,11c0,.61-.22.85-.85.84-2.35-.06-4.7-.08-7-.11a21.62,21.62,0,0,0,.71-2.71c.39-3,.69-6.09,1-9.1Z" transform="translate(-136 -359.89)"/><path class="cls-7" d="M200,381.25c.15-.67.32-1.34.46-2,.41-2,.84-4,1.21-6,.28-1.49.49-3,.73-4.5h6c-.08,2.1,0,4.2-.29,6.27a33.24,33.24,0,0,1-1.19,4.56l-.44,1.67Z" transform="translate(-136 -359.89)"/><path class="cls-8" d="M206.51,381.26l.44-1.67a33.24,33.24,0,0,0,1.19-4.56c.26-2.07.21-4.17.29-6.27h4.8l1.23.65c-.32,3-.62,6.06-1,9.1a21.62,21.62,0,0,1-.71,2.71Z" transform="translate(-136 -359.89)"/><path class="cls-9" d="M219.46,401.63h1.09v12.15h-4.21c-.15-.16-.28-.43-.44-.45-1.31-.15-1.33-1.05-1.22-2a28.72,28.72,0,0,0,.42-3.89,5.29,5.29,0,0,1,3.16-5.37Z" transform="translate(-136 -359.89)"/><path class="cls-10" d="M218.26,402.05a5.29,5.29,0,0,0-3.16,5.37,28.72,28.72,0,0,1-.42,3.89c-.11,1-.09,1.87,1.22,2,.16,0,.29.29.44.45h-4.79c-.15-.16-.26-.39-.44-.48a1.35,1.35,0,0,1-.82-1.8,21,21,0,0,0,.29-3.29c.09-1.13.25-2.27.25-3.41s1.1-1.69,1.67-2.51c1.26-.08,2.51-.13,3.76-.26a3.81,3.81,0,0,0,1-.46l.72,0Z" transform="translate(-136 -359.89)"/><path class="cls-11" d="M374.12,397.17a24.29,24.29,0,0,1,3.73-.59c10.14-.05,20.27,0,30.41,0,5.9,0,11.81,0,17.71,0,1.11,0,2.22.13,3.33.24.18,0,.33.26.5.4-.36,0-.71.08-1.07.08H375.55C375.07,397.27,374.6,397.21,374.12,397.17Z" transform="translate(-136 -359.89)"/><path class="cls-12" d="M244.6,396.32l.13-.33a6.87,6.87,0,0,1,.35,1.51q0,22.9,0,45.81,0,10.47,0,20.93a4.09,4.09,0,0,1-.44,1.27V465c0-.35,0-.71,0-1.07l0-54C244.64,405.42,244.61,400.87,244.6,396.32Z" transform="translate(-136 -359.89)"/><path class="cls-13" d="M244.62,465v.47c-1.23,0-2.47.06-3.71.06H162.74c-.44,0-.87-.05-1.31-.08a11,11,0,0,1,1.5-.2q39.85,0,79.72,0a13.11,13.11,0,0,0,1.75-.23Z" transform="translate(-136 -359.89)"/><path class="cls-13" d="M253.51,465.29q40,0,80.05,0a6.86,6.86,0,0,1,1.25.23c-.36,0-.72.05-1.08.05H255.4A13.65,13.65,0,0,1,253.51,465.29Z" transform="translate(-136 -359.89)"/><path class="cls-13" d="M356.16,465.52a6.86,6.86,0,0,1,1.25-.23q38.91,0,77.84,0a6.75,6.75,0,0,1,1.24.23c-.4,0-.79.05-1.19.05H357.23C356.88,465.57,356.52,465.53,356.16,465.52Z" transform="translate(-136 -359.89)"/><path class="cls-14" d="M448.25,456.89a2,2,0,0,1-.21-.63c.13-1.88.39-3.76.43-5.65.07-3.29,0-6.58,0-9.88a25.59,25.59,0,0,1,.45-3.23c0,5.91,0,11.82,0,17.73A5.21,5.21,0,0,1,448.25,456.89Z" transform="translate(-136 -359.89)"/><path class="cls-15" d="M448.76,413.71c-.09-5.72-.19-11.44-.25-17.16,0-.32.27-.65.41-1,0,5.28.07,10.56.08,15.84A17.79,17.79,0,0,1,448.76,413.71Z" transform="translate(-136 -359.89)"/><path class="cls-16" d="M211.55,413.78h9c-.19.26-.38.74-.57.74-3,0-6.11,0-9.16-.07V414Z" transform="translate(-136 -359.89)"/><path class="cls-17" d="M178.64,381.3c0-.11.06-.32.09-.32,1.16,0,2.31,0,3.47,0,4.35,0,8.7,0,13.05,0a4.61,4.61,0,0,1,1.17.31l-1,0c-.43,0-.86-.1-1.29-.1H181.69c-.59,0-1.18.07-1.77.11Z" transform="translate(-136 -359.89)"/><path class="cls-5" d="M179.92,381.32c.59,0,1.18-.11,1.77-.11h12.45c.43,0,.86.06,1.29.1l-14.68.09A7.77,7.77,0,0,1,179.92,381.32Z" transform="translate(-136 -359.89)"/><path class="cls-16" d="M217.3,401.57a3.81,3.81,0,0,1-1,.46c-1.25.13-2.5.18-3.76.26l-.72-.24v-.44Z" transform="translate(-136 -359.89)"/><path class="cls-16" d="M218.26,402.05l-.24-.45,1.44,0Z" transform="translate(-136 -359.89)"/><path class="cls-12" d="M244.71,395.62l0-.54Z" transform="translate(-136 -359.89)"/><path class="cls-18" d="M271.5,432.47c.1-.94.62-1.16,1.55-1.16q21.21,0,42.41,0a41.86,41.86,0,0,1,5.26.12,8.47,8.47,0,0,1,7.68,8.85c-.1,4.1-.06,8.21,0,12.32,0,1-.21,1.39-1.32,1.39q-27.07,0-54.16,0a4.56,4.56,0,0,1-1.36-.46Q271.51,443,271.5,432.47Z" transform="translate(-136 -359.89)"/><path class="cls-1" d="M328.08,397.29l.22.22c0,.4,0,.8,0,1.19q0,6.72.07,13.42l-.08.42-.14.53c-.89,3.27-4.4,6.42-8,6.4s-6.86.06-10.29.06H273.29l-1.32,0-.23,0-.06-.06h-.08c0-.47-.06-.95-.06-1.43q0-9.93-.05-19.85l.71-1.05c3.06,0,6.13.11,9.2.11Z" transform="translate(-136 -359.89)"/><path class="cls-19" d="M328.08,397.29H281.4c-3.07,0-6.14-.07-9.2-.11.21-.13.42-.36.64-.38,1.39-.1,2.79-.23,4.18-.23q24.51,0,49,0C326.8,396.55,327.66,396.35,328.08,397.29Z" transform="translate(-136 -359.89)"/><path class="cls-19" d="M328.39,412.12q0-6.71-.07-13.42c0-.39,0-.79,0-1.19.24.48.69,1,.69,1.44,0,4.15-.09,8.3-.18,12.45C328.8,411.65,328.53,411.88,328.39,412.12Z" transform="translate(-136 -359.89)"/><path class="cls-20" d="M271.49,398.22q0,9.93.05,19.85c0,.48,0,1,.06,1.43-.19-.27-.55-.54-.55-.81,0-6.65.13-13.3.22-19.94A1.43,1.43,0,0,1,271.49,398.22Z" transform="translate(-136 -359.89)"/><path class="cls-20" d="M271.5,432.47q0,10.51,0,21c-.1-.14-.27-.28-.27-.42q0-9.93,0-19.86A2.76,2.76,0,0,1,271.5,432.47Z" transform="translate(-136 -359.89)"/><path class="cls-19" d="M328.17,413.07l.14-.53Z" transform="translate(-136 -359.89)"/><path class="cls-20" d="M271.74,419.55l.23,0Z" transform="translate(-136 -359.89)"/><path class="cls-21" d="M226.22,453.87c-.45,0-1,.1-1.47.1l-53.92,0c-1,0-1.3-.3-1.3-1.3q.06-10,0-20c0-1,.24-1.41,1.33-1.41q27.08,0,54.16,0c.89,0,1.37.25,1.36,1.18q0,10.54,0,21.07C226.36,453.62,226.3,453.69,226.22,453.87Zm-5.67-17.08c-.22-.27-.39-.71-.66-.78a4.7,4.7,0,0,0-1.39.08l-1.68,0c-.59-.05-1.17-.15-1.76-.15-6,0-12.06,0-18.08,0-7,0-14.06,0-21.09-.07-.94,0-1.29.27-1.28,1.21,0,3.71,0,7.42,0,11.13,0,.23.06.46.1.81h1.94q21.51.08,43,.11c.26,0,.53-.37.79-.56a3.43,3.43,0,0,0,.14-.68C220.6,444.18,220.57,440.48,220.55,436.79Z" transform="translate(-136 -359.89)"/><path class="cls-22" d="M244.62,465h-.22q0-33.68,0-67.35a11,11,0,0,1,.19-1.37c0,4.55,0,9.1,0,13.65l0,54C244.67,464.33,244.63,464.69,244.62,465Z" transform="translate(-136 -359.89)"/><path class="cls-16" d="M208.68,414c-1.91-.07-3.82-.07-5.71-.26a7.92,7.92,0,0,1-2.39-.9,1,1,0,0,1-.51-.71c0-2.35-.11-4.7.07-7,.12-1.64,1.37-2.58,3.31-2.78,1.57-.16,3.16-.17,4.75-.25-.15.23-.24.56-.44.66-1.6.77-1.93,2.14-2,3.75s-.27,3.22-.5,4.83c-.19,1.37,0,1.73,1.41,2A18.85,18.85,0,0,1,208.68,414Z" transform="translate(-136 -359.89)"/><path class="cls-23" d="M208.68,414a18.85,18.85,0,0,0-2-.68c-1.36-.29-1.6-.65-1.41-2,.23-1.61.43-3.22.5-4.83s.39-3,2-3.75c.2-.1.29-.43.44-.66h3.58l.72.24c-.57.82-1.67,1.25-1.67,2.51s-.16,2.28-.25,3.41a21,21,0,0,1-.29,3.29,1.35,1.35,0,0,0,.82,1.8c.18.09.29.32.44.48l-.73.23Z" transform="translate(-136 -359.89)"/><path class="cls-24" d="M220.47,448.55c-.26.19-.53.56-.79.56q-21.51,0-43-.11h-1.94c0-.35-.09-.58-.1-.81,0-3.71,0-7.42,0-11.13,0-.94.34-1.21,1.28-1.21,7,0,14.06.06,21.09.07,6,0,12.05,0,18.08,0,.59,0,1.17.1,1.76.15l-1.44.48-7.91.24c-1.16,0-2.32,0-3.48,0-2.51.07-3.18.44-3.7,2.88a35.17,35.17,0,0,0-.48,5.91,2.42,2.42,0,0,0,2.54,2.7l5.36.22h5.76Z" transform="translate(-136 -359.89)"/><path class="cls-25" d="M215.38,436.54l1.44-.48,1.68,0,2.05.7c0,3.69,0,7.39.06,11.08a3.43,3.43,0,0,1-.14.68l-7-.05c-.1-.24-.14-.59-.32-.71a2,2,0,0,1-.9-2.06c.12-1.78.07-3.58.29-5.35.19-1.42.36-3,2.33-3.26C215.06,437.1,215.21,436.74,215.38,436.54Z" transform="translate(-136 -359.89)"/><path class="cls-26" d="M220.55,436.79l-2.05-.7a4.7,4.7,0,0,1,1.39-.08C220.16,436.08,220.33,436.52,220.55,436.79Z" transform="translate(-136 -359.89)"/><path class="cls-27" d="M215.38,436.54c-.17.2-.32.56-.51.58-2,.24-2.14,1.84-2.33,3.26-.22,1.77-.17,3.57-.29,5.35a2,2,0,0,0,.9,2.06c.18.12.22.47.32.71h-5.76c-.05-.15-.06-.39-.16-.43-1.34-.64-1.36-1.8-1.29-3,.05-.84,0-1.68,0-2.51,0-2-.22-4,1.2-5.74Z" transform="translate(-136 -359.89)"/><path class="cls-28" d="M207.47,436.78c-1.42,1.7-1.19,3.74-1.2,5.74,0,.83,0,1.67,0,2.51-.07,1.24,0,2.4,1.29,3,.1,0,.11.28.16.43l-5.36-.22a2.42,2.42,0,0,1-2.54-2.7,35.17,35.17,0,0,1,.48-5.91c.52-2.44,1.19-2.81,3.7-2.88C205.15,436.75,206.31,436.78,207.47,436.78Z" transform="translate(-136 -359.89)"/></svg>
