<?xml version="1.0" standalone="no"?>
<!DOCTYPE svg PUBLIC "-//W3C//DTD SVG 20010904//EN"
 "http://www.w3.org/TR/2001/REC-SVG-20010904/DTD/svg10.dtd">
<svg version="1.0" xmlns="http://www.w3.org/2000/svg"
 width="1348.000000pt" height="512.000000pt" viewBox="0 0 1348.000000 512.000000"
 preserveAspectRatio="xMidYMid meet">

<g transform="translate(0.000000,512.000000) scale(0.100000,-0.100000)"
fill="#000000" stroke="none">
<path d="M0 2560 l0 -2560 6740 0 6740 0 0 2560 0 2560 -6740 0 -6740 0 0
-2560z m3515 2200 c3 -5 3 -10 -2 -10 -4 0 -7 -117 -5 -260 l3 -260 -953 2
-953 3 -3 268 -2 267 954 0 c626 0 957 -3 961 -10z m593 -708 c13 -4 -679 -7
-1536 -7 -858 0 -1555 3 -1549 7 15 9 3053 9 3085 0z m4257 -2 c12 -5 -635 -9
-1540 -8 -858 0 -1549 4 -1535 8 35 11 3051 11 3075 0z m4250 0 c12 -5 -638
-9 -1545 -8 -861 1 -1551 4 -1535 8 44 11 3056 10 3080 0z m-11690 -40 c-3 -5
-12 -10 -18 -10 -7 0 -6 4 3 10 19 12 23 12 15 0z m3393 -53 c67 -55 162 -159
162 -178 0 -6 -20 16 -44 49 -43 59 -131 133 -193 166 -18 9 -33 19 -33 21 0
9 79 -34 108 -58z m857 55 c-6 -4 -36 -25 -67 -46 -31 -21 -75 -58 -98 -82
-22 -24 -40 -40 -40 -35 0 14 104 108 156 141 45 28 70 40 49 22z m7625 -38
c0 -2 -9 0 -20 6 -11 6 -20 13 -20 16 0 2 9 0 20 -6 11 -6 20 -13 20 -16z
m-4146 -82 c33 -35 63 -68 64 -73 2 -5 -27 21 -65 59 -37 38 -81 79 -98 91
l-30 22 34 -18 c18 -10 61 -46 95 -81z m702 75 c-17 -12 -50 -40 -75 -62 l-46
-39 35 38 c31 34 97 85 110 85 3 0 -8 -10 -24 -22z m-8506 9 c0 -3 -13 -14
-30 -26 -17 -12 -28 -16 -25 -8 5 11 14 18 53 37 1 0 2 -1 2 -3z m12035 -61
c38 -34 37 -34 -17 6 -32 23 -58 43 -58 46 0 8 36 -17 75 -52z m-12115 2 c0
-2 -12 -14 -27 -28 l-28 -24 24 28 c23 25 31 32 31 24z m12175 -67 c10 -11 16
-20 13 -20 -3 0 -13 9 -23 20 -10 11 -16 20 -13 20 3 0 13 -9 23 -20z m-12242
-14 c-10 -13 -20 -22 -22 -20 -4 4 29 44 36 44 2 0 -4 -11 -14 -24z m8516 -3
c-13 -16 -28 -32 -33 -38 -4 -5 -3 1 4 14 16 32 33 50 44 51 5 0 -1 -12 -15
-27z m-4290 -57 c-12 -20 -23 -35 -26 -32 -7 7 38 78 45 71 2 -1 -7 -19 -19
-39z m8052 27 c13 -16 12 -17 -3 -4 -10 7 -18 15 -18 17 0 8 8 3 21 -13z
m-8483 -68 c-3 -3 -9 2 -12 12 -6 14 -5 15 5 6 7 -7 10 -15 7 -18z m8522 -10
c0 -5 -5 -3 -10 5 -5 8 -10 20 -10 25 0 6 5 3 10 -5 5 -8 10 -19 10 -25z
m-12389 -12 c-12 -20 -14 -14 -5 12 4 9 9 14 11 11 3 -2 0 -13 -6 -23z m8149
-18 c0 -5 -5 -3 -10 5 -5 8 -10 20 -10 25 0 6 5 3 10 -5 5 -8 10 -19 10 -25z
m361 2 c-10 -9 -11 -8 -5 6 3 10 9 15 12 12 3 -3 0 -11 -7 -18z m-4603 -1539
l-3 -1443 -1750 0 -1750 0 1743 2 c1383 3 1742 6 1742 16 0 6 1 669 1 1472 0
916 4 1448 10 1428 5 -18 8 -606 7 -1475z m2085 -1441 l1742 -2 -1750 0 -1750
0 -3 1460 c-1 803 1 1467 5 1475 5 8 9 -648 11 -1457 l2 -1473 1743 -3z m6427
2543 l0 -390 -392 2 -393 3 -3 343 c-1 230 1 341 8 337 6 -4 10 -126 10 -341
l0 -334 380 0 380 0 0 385 c0 212 2 385 5 385 3 0 5 -176 5 -390z m-2187
-2543 l1742 -2 -1745 0 -1745 0 0 1455 0 1455 2 -1452 3 -1453 1743 -3z
m-9420 2856 c-7 -2 -19 -2 -25 0 -7 3 -2 5 12 5 14 0 19 -2 13 -5z m-52 -34
c-9 -22 -10 -22 -10 -3 -1 11 2 24 6 27 12 12 14 0 4 -24z m2366 -672 c-1
-127 -2 -23 -2 233 0 256 1 360 2 232 2 -127 2 -337 0 -465z m1890 0 c-1 -127
-2 -23 -2 233 0 256 1 360 2 232 2 -127 2 -337 0 -465z m4252 -484 c-1 -651
-5 -1160 -10 -1138 -9 45 -12 2258 -3 2293 4 12 8 22 10 22 2 0 3 -530 3
-1177z m-7308 1007 l919 0 -1 -270 -1 -270 -954 0 -954 0 0 268 c0 148 3 272
7 276 5 4 21 5 37 2 16 -3 442 -6 947 -6z m5401 -522 c-8 -8 -9 -4 -5 13 4 13
8 18 11 10 2 -7 -1 -18 -6 -23z m783 -115 c-9 -37 -18 -20 -9 19 4 18 9 27 11
20 3 -7 2 -24 -2 -39z m-915 -48 c0 -2 -10 -9 -22 -15 -22 -11 -22 -10 -4 4
21 17 26 19 26 11z m857 -78 c-37 -57 -118 -141 -152 -159 -11 -6 9 16 45 49
36 33 81 86 100 116 19 31 37 54 39 51 2 -2 -12 -28 -32 -57z m-1024 16 c-24
-2 -62 -2 -85 0 -24 2 -5 4 42 4 47 0 66 -2 43 -4z m-6818 -79 c-28 -21 -55
-36 -55 -29 0 6 62 45 70 45 3 -1 -4 -8 -15 -16z m-85 -57 c0 -2 -12 -14 -27
-28 l-28 -24 24 28 c23 25 31 32 31 24z m-60 -64 c-1 -5 -15 -24 -32 -43 -32
-36 -29 -25 6 23 20 28 26 32 26 20z m7765 -13 c-3 -5 -12 -10 -18 -10 -7 0
-6 4 3 10 19 12 23 12 15 0z m-35 -15 c0 -2 -10 -9 -22 -15 -22 -11 -22 -10
-4 4 21 17 26 19 26 11z m34 -64 c4 -5 -3 -7 -14 -4 -23 6 -26 13 -6 13 8 0
17 -4 20 -9z m81 -41 c3 -6 -1 -7 -9 -4 -18 7 -21 14 -7 14 6 0 13 -4 16 -10z
m-7939 -36 c-4 -9 -9 -15 -11 -12 -3 3 -3 13 1 22 4 9 9 15 11 12 3 -3 3 -13
-1 -22z m8039 -45 c22 -25 17 -22 -20 10 -67 59 -75 68 -40 44 17 -12 44 -36
60 -54z m55 -70 c15 -28 5 -23 -15 7 -9 15 -12 23 -6 20 6 -4 16 -16 21 -27z
m-5002 -14 c3 -3 -521 -4 -1164 -3 -643 1 -1128 5 -1079 8 103 8 2235 3 2243
-5z m4007 -3 c17 -12 17 -13 2 -8 -10 3 -483 7 -1050 7 -568 1 -1014 5 -992 9
22 4 486 7 1030 6 804 -1 994 -3 1010 -14z m-3980 -929 c-3 -10 -248 -12
-1187 -11 l-1183 3 1183 2 1182 3 2 463 3 462 3 -455 c1 -250 0 -461 -3 -467z
m3075 -6 l1180 -2 -1182 0 -1183 0 0 458 0 457 3 -455 2 -455 1180 -3z m1927
891 c-3 -8 -6 -5 -6 6 -1 11 2 17 5 13 3 -3 4 -12 1 -19z m-7370 -10 c-3 -8
-6 -5 -6 6 -1 11 2 17 5 13 3 -3 4 -12 1 -19z m6526 -47 c16 -14 33 -34 39
-45 5 -10 -10 1 -33 26 -24 24 -55 52 -69 62 -24 17 -24 17 5 0 17 -9 43 -28
58 -43z m866 -1 c0 -10 -3 -8 -9 5 -12 27 -12 43 0 25 5 -8 9 -22 9 -30z
m-6006 -88 l737 -2 0 -276 c-1 -244 -3 -275 -16 -270 -9 3 -438 6 -955 6
l-939 0 0 268 c0 148 2 271 5 273 2 3 100 5 217 4 117 -1 545 -2 951 -3z
m10272 -397 l0 -370 -2 368 -3 367 -380 0 -380 0 -1 -317 c0 -175 -4 -336 -8
-358 -5 -24 -9 103 -10 323 l-1 362 393 -2 392 -3 0 -370z m-1377 -352 c-324
-2 -852 -2 -1175 0 -324 1 -59 2 587 2 646 0 911 -1 588 -2z m-2892 -99 c-4
-20 -10 -34 -12 -31 -3 3 -2 21 2 41 3 21 9 35 11 32 3 -3 2 -21 -1 -42z
m-8142 1 c5 -22 4 -26 -4 -15 -5 8 -10 24 -10 34 0 26 6 18 14 -19z m12376
-55 c-16 -40 -23 -33 -9 9 6 18 14 30 17 27 2 -3 -1 -19 -8 -36z m-12357 0 c3
-11 1 -18 -4 -14 -5 3 -9 12 -9 20 0 20 7 17 13 -6z m8073 -67 c-20 -37 -132
-160 -159 -174 -12 -7 5 15 38 47 34 33 76 80 95 107 38 53 48 61 26 20z
m4254 7 c-6 -11 -13 -20 -16 -20 -2 0 0 9 6 20 6 11 13 20 16 20 2 0 0 -9 -6
-20z m-12213 -120 c15 -19 20 -29 11 -22 -21 17 -98 116 -98 127 0 4 13 -10
30 -31 16 -21 42 -55 57 -74z m12161 38 c-13 -21 -47 -54 -97 -93 -14 -10 3
11 39 47 36 37 66 67 68 67 1 1 -3 -9 -10 -21z m-12037 -130 l24 -19 -30 15
c-16 8 -41 25 -55 37 l-25 21 31 -17 c17 -10 41 -26 55 -37z m7649 18 c0 -2
-8 -10 -17 -17 -16 -13 -17 -12 -4 4 13 16 21 21 21 13z m4230 -20 c0 -7 -63
-37 -68 -32 -2 3 9 11 25 20 28 15 43 19 43 12z m-11795 -37 c5 -5 -5 -4 -23
2 -17 6 -32 13 -32 16 0 7 43 -8 55 -18z m7495 11 c-8 -5 -19 -10 -25 -10 -5
0 -3 5 5 10 8 5 20 10 25 10 6 0 3 -5 -5 -10z"/>
</g>
</svg>
